REM DISCID BE0D9A1F
REM COMMENT "ExactAudioCopy v1.0b3"
CATALOG 0000000000000
PERFORMER "Unknown Artist"
TITLE "Unknown Title"
FILE "bebop-box1.wav" WAVE
  TRACK 01 AUDIO
    TITLE "Track01"
    PERFORMER "Unknown Artist"
    ISRC JPVI00213040
    INDEX 01 00:00:00
  TRACK 02 AUDIO
    TITLE "Track02"
    PERFORMER "Unknown Artist"
    ISRC JPVI09835520
    INDEX 01 00:30:28
  TRACK 03 AUDIO
    TITLE "Track03"
    PERFORMER "Unknown Artist"
    ISRC JPVI00213060
    INDEX 01 02:02:13
  TRACK 04 AUDIO
    TITLE "Track04"
    PERFORMER "Unknown Artist"
    ISRC JPVI00213070
    INDEX 01 02:17:65
  TRACK 05 AUDIO
    TITLE "Track05"
    PERFORMER "Unknown Artist"
    ISRC JPVI00213080
    INDEX 01 06:18:18
  TRACK 06 AUDIO
    TITLE "Track06"
    PERFORMER "Unknown Artist"
    ISRC JPVI00213090
    INDEX 01 10:18:50
  TRACK 07 AUDIO
    TITLE "Track07"
    PERFORMER "Unknown Artist"
    ISRC JPVI00213100
    INDEX 01 10:45:30
  TRACK 08 AUDIO
    TITLE "Track08"
    PERFORMER "Unknown Artist"
    ISRC JPVI00213110
    INDEX 01 13:34:33
  TRACK 09 AUDIO
    TITLE "Track09"
    PERFORMER "Unknown Artist"
    ISRC JPVI00213120
    INDEX 01 14:34:65
  TRACK 10 AUDIO
    TITLE "Track10"
    PERFORMER "Unknown Artist"
    ISRC JPVI09809350
    INDEX 01 14:57:23
  TRACK 11 AUDIO
    TITLE "Track11"
    PERFORMER "Unknown Artist"
    ISRC JPVI09822270
    INDEX 01 17:36:18
  TRACK 12 AUDIO
    TITLE "Track12"
    PERFORMER "Unknown Artist"
    ISRC JPVI00213320
    INDEX 01 21:14:50
  TRACK 13 AUDIO
    TITLE "Track13"
    PERFORMER "Unknown Artist"
    ISRC JPVI00213150
    INDEX 01 21:38:70
  TRACK 14 AUDIO
    TITLE "Track14"
    PERFORMER "Unknown Artist"
    ISRC JPVI00213160
    INDEX 01 23:57:10
  TRACK 15 AUDIO
    TITLE "Track15"
    PERFORMER "Unknown Artist"
    ISRC JPVI09907860
    INDEX 01 24:33:70
  TRACK 16 AUDIO
    TITLE "Track16"
    PERFORMER "Unknown Artist"
    ISRC JPVI00213180
    INDEX 01 29:36:68
  TRACK 17 AUDIO
    TITLE "Track17"
    PERFORMER "Unknown Artist"
    ISRC JPVI00213190
    INDEX 01 29:46:05
  TRACK 18 AUDIO
    TITLE "Track18"
    PERFORMER "Unknown Artist"
    ISRC JPVI09809300
    INDEX 01 31:44:13
  TRACK 19 AUDIO
    TITLE "Track19"
    PERFORMER "Unknown Artist"
    ISRC JPVI00213210
    INDEX 01 34:31:28
  TRACK 20 AUDIO
    TITLE "Track20"
    PERFORMER "Unknown Artist"
    ISRC JPVI00213220
    INDEX 01 34:42:25
  TRACK 21 AUDIO
    TITLE "Track21"
    PERFORMER "Unknown Artist"
    ISRC JPVI09822280
    INDEX 01 39:14:55
  TRACK 22 AUDIO
    TITLE "Track22"
    PERFORMER "Unknown Artist"
    ISRC JPVI00213240
    INDEX 01 42:28:20
  TRACK 23 AUDIO
    TITLE "Track23"
    PERFORMER "Unknown Artist"
    ISRC JPVI00213250
    INDEX 01 42:38:18
  TRACK 24 AUDIO
    TITLE "Track24"
    PERFORMER "Unknown Artist"
    ISRC JPVI00213260
    INDEX 01 45:31:13
  TRACK 25 AUDIO
    TITLE "Track25"
    PERFORMER "Unknown Artist"
    ISRC JPVI00213270
    INDEX 01 45:59:60
  TRACK 26 AUDIO
    TITLE "Track26"
    PERFORMER "Unknown Artist"
    ISRC JPVI00213280
    INDEX 01 47:50:25
  TRACK 27 AUDIO
    TITLE "Track27"
    PERFORMER "Unknown Artist"
    ISRC JPVI09809370
    INDEX 01 47:59:28
  TRACK 28 AUDIO
    TITLE "Track28"
    PERFORMER "Unknown Artist"
    ISRC JPVI00213300
    INDEX 00 52:12:29
    INDEX 01 52:14:00
  TRACK 29 AUDIO
    TITLE "Track29"
    PERFORMER "Unknown Artist"
    ISRC JPVI00125860
    INDEX 01 52:24:73
  TRACK 30 AUDIO
    TITLE "Track30"
    PERFORMER "Unknown Artist"
    ISRC JPVI00213310
    INDEX 01 55:49:10
  TRACK 31 AUDIO
    TITLE "Track31"
    PERFORMER "Unknown Artist"
    ISRC JPVI09822220
    INDEX 00 56:07:41
    INDEX 01 56:09:13
